<svg id="Component_4_1" data-name="Component 4 – 1" xmlns="http://www.w3.org/2000/svg" width="31.051" height="39" viewBox="0 0 31.051 39">
  <g id="behance">
    <path id="Path_18" data-name="Path 18" d="M16,18.019A4.593,4.593,0,0,0,12.511,13.2a4.078,4.078,0,0,0,2.609-3.978c0-3.794-2.837-4.719-6.109-4.719H0V23.549H9.263C12.736,23.549,16,21.889,16,18.019ZM4.2,7.752H8.142c1.515,0,2.879.424,2.879,2.177,0,1.618-1.061,2.268-2.562,2.268H4.2Zm0,12.562V15.068H8.777c1.849,0,3.019.769,3.019,2.72,0,1.924-1.4,2.526-3.106,2.526Z" transform="translate(0 -4.5)" fill="#fff"/>
    <path id="Path_19" data-name="Path 19" d="M20.4,22.8a6.167,6.167,0,0,0,6.475-4.639H23.526a3.148,3.148,0,0,1-3,1.8c-2.227,0-3.4-1.3-3.4-3.511h9.981c.316-4.423-2.148-8.192-6.7-8.192a6.941,6.941,0,0,0-7.08,7.3C13.324,19.858,16.036,22.8,20.4,22.8Zm-.119-11.68c1.909,0,2.869,1.118,3.029,2.946H17.131a2.967,2.967,0,0,1,3.155-2.946Z" transform="translate(3.918 -3.394)" fill="#fff"/>
    <path id="Path_20" data-name="Path 20" d="M15.667,5.273h7.749V7.149H15.667Z" transform="translate(4.606 -4.273)" fill="#fff"/>
  </g>
  <line id="Line_4" data-name="Line 4" x2="30" transform="translate(0.5 37.5)" fill="none" stroke="#fff" stroke-width="3" opacity="0"/>
</svg>
