<svg id="Component_3_1" data-name="Component 3 – 1" xmlns="http://www.w3.org/2000/svg" width="31.057" height="44" viewBox="0 0 31.057 44">
  <path id="dribbble-logo" d="M15.528,0A15.528,15.528,0,1,0,31.057,15.529,15.546,15.546,0,0,0,15.528,0ZM25.647,7.324a12.969,12.969,0,0,1,2.906,7.807,21.919,21.919,0,0,0-8.735-.084c-.467-1.093-.951-2.134-1.44-3.119A25.715,25.715,0,0,0,25.647,7.324ZM23.9,5.547a23.153,23.153,0,0,1-6.675,4.165,59.836,59.836,0,0,0-4.413-6.93A13,13,0,0,1,23.9,5.547ZM10.293,3.6a57.072,57.072,0,0,1,4.543,7A41.675,41.675,0,0,1,2.853,12.5,13.084,13.084,0,0,1,10.293,3.6Zm-7.786,11.4H2.58a45.09,45.09,0,0,0,7.9-.73,38.409,38.409,0,0,0,5.533-1.427c.452.9.9,1.849,1.336,2.845a23.494,23.494,0,0,0-6.1,3.025,27.469,27.469,0,0,0-5.668,5.238,12.973,12.973,0,0,1-3.093-8.416C2.493,15.35,2.5,15.172,2.507,14.995Zm4.876,10.7a25.071,25.071,0,0,1,5.358-4.984A20.906,20.906,0,0,1,18.3,17.979a48.506,48.506,0,0,1,2.618,9.414,12.993,12.993,0,0,1-13.534-1.7Zm15.827.356a51.68,51.68,0,0,0-2.45-8.663,19.644,19.644,0,0,1,7.629.258A13.049,13.049,0,0,1,23.21,26.051Z" transform="translate(0 -0.001)" fill="#fff"/>
  <line id="Line_3" data-name="Line 3" x2="30" transform="translate(0.5 42.5)" fill="none" stroke="#fff" stroke-width="3" opacity="0"/>
</svg>
