<svg id="Component_1_1" data-name="Component 1 – 1" xmlns="http://www.w3.org/2000/svg" width="31.057" height="44" viewBox="0 0 31.057 44">
  <path id="Path_22" data-name="Path 22" d="M15.528,2.8c4.146,0,4.638.016,6.275.091a6.85,6.85,0,0,1,4.669,1.7,6.806,6.806,0,0,1,1.7,4.669c.075,1.637.091,2.129.091,6.275s-.016,4.638-.091,6.275a6.884,6.884,0,0,1-1.7,4.669,6.8,6.8,0,0,1-4.669,1.7c-1.637.075-2.129.091-6.275.091s-4.638-.016-6.275-.091a6.933,6.933,0,0,1-4.669-1.7,6.844,6.844,0,0,1-1.7-4.669c-.075-1.637-.091-2.129-.091-6.275s.016-4.638.091-6.275a6.908,6.908,0,0,1,1.7-4.669,6.82,6.82,0,0,1,4.669-1.7c1.637-.075,2.129-.091,6.275-.091m0-2.8c-4.217,0-4.746.018-6.4.093A9.6,9.6,0,0,0,2.606,2.606,9.581,9.581,0,0,0,.093,9.125C.018,10.782,0,11.311,0,15.528s.018,4.746.093,6.4A9.607,9.607,0,0,0,2.606,28.45a9.589,9.589,0,0,0,6.519,2.513c1.656.075,2.186.093,6.4.093s4.746-.018,6.4-.093A9.6,9.6,0,0,0,28.45,28.45a9.577,9.577,0,0,0,2.513-6.519c.075-1.656.093-2.186.093-6.4s-.018-4.746-.093-6.4A9.6,9.6,0,0,0,28.45,2.606,9.6,9.6,0,0,0,21.931.093C20.275.018,19.746,0,15.528,0Z" transform="translate(0)" fill="#fff"/>
  <path id="Path_23" data-name="Path 23" d="M13.812,5.838a7.974,7.974,0,1,0,7.974,7.974A7.974,7.974,0,0,0,13.812,5.838Zm0,13.15a5.176,5.176,0,1,1,5.176-5.176A5.176,5.176,0,0,1,13.812,18.988Z" transform="translate(1.716 1.717)" fill="#fff"/>
  <circle id="Ellipse_1" data-name="Ellipse 1" cx="1.863" cy="1.863" r="1.863" transform="translate(21.955 5.375)" fill="#fff"/>
  <line id="Line_1" data-name="Line 1" x2="30" transform="translate(0.5 42.5)" fill="none" stroke="#fff" stroke-width="3" opacity="0"/>
</svg>
