<svg id="Component_2_1" data-name="Component 2 – 1" xmlns="http://www.w3.org/2000/svg" width="31" height="44" viewBox="0 0 31 44">
  <path id="Exclusion_1" data-name="Exclusion 1" d="M15.5,31A15.5,15.5,0,0,1,9.468,1.218,15.5,15.5,0,0,1,21.534,29.782,15.4,15.4,0,0,1,15.5,31ZM6.649,17.967a.139.139,0,0,0-.139.138V18.2a5.2,5.2,0,0,0,5.184,5.2h8.079c1.515,0,2.381-1.391,3.22-2.737.229-.37.468-.752.716-1.1a4.954,4.954,0,0,1,1.826-1.242.143.143,0,0,0,.085-.13v-1a.138.138,0,0,0-.138-.139.132.132,0,0,0-.038.006l-4.716,1.363a.133.133,0,0,0-.065.04,12.442,12.442,0,0,1-1.048,1.032l-.008.007a1.587,1.587,0,0,1-1.038.384H16.862V18.144h1.356a.141.141,0,0,0,.094-.035l.175-.161c.067-.062.16-.147.271-.258l.024-.024c.058-.058.117-.117.178-.184s.128-.132.2-.22c.106-.115.211-.237.311-.354l0-.005a3,3,0,0,0,.215-.271c.078-.091.155-.195.221-.285.025-.037.052-.074.078-.11l0-.007c.027-.037.055-.076.082-.116.054-.081.1-.161.145-.234a4.49,4.49,0,0,0,.343-.65c.047-.1.085-.213.118-.31l.007-.018a2.745,2.745,0,0,0,.095-.333,2.6,2.6,0,0,0,.045-.795,1.493,1.493,0,0,0-.032-.24v-.012a.982.982,0,0,0-.037-.17,4.033,4.033,0,0,0-.259-.77c-.035-.085-.078-.178-.127-.277-.122-.228-.224-.4-.329-.562-.024-.039-.051-.078-.078-.117l-.061-.09c-.078-.12-.165-.237-.251-.349l-.052-.068c-.05-.065-.1-.132-.158-.2l0,0-.009-.012-.076-.091c-.074-.091-.155-.186-.246-.29-.249-.28-.538-.573-.884-.895-.048-.048-.1-.1-.164-.151-.226-.205-.419-.373-.574-.5-.05-.037-.092-.073-.134-.108h0c-.026-.023-.054-.046-.081-.067l-.132-.1,0,0h0l-.053-.04a.158.158,0,0,0-.041-.021l-.182-.051v-1.5a.892.892,0,0,0-.257-.626.86.86,0,0,0-.619-.26.882.882,0,0,0-.876.886V8.1l-.091-.026L14.772,8l-.225-.062h-.011l-1.7-.462a.089.089,0,0,0-.1.129l.271.5c.016.039.035.077.054.114s.027.053.04.081c.039.078.082.166.133.277.041.089.079.169.121.253l.027.062.026.057,0,.006c.073.16.147.325.221.5.063.148.127.3.184.46.159.414.3.836.424,1.255.029.093.055.185.078.274v0l0,.015c.011.038.021.077.031.116l.018.076c.058.229.1.422.128.6v.007c.023.13.048.264.061.4.021.169.039.31.045.454s.019.281.019.422a4.5,4.5,0,0,1-.106,1.016l-.006.02-.009.034c-.021.078-.042.158-.067.236s-.056.171-.089.261l-.031.086-.011.028v0c-.021.058-.044.117-.071.175a9.956,9.956,0,0,1-.556,1.11c-.364.644-.682,1.11-.8,1.28l-.041.061-.039.056a.141.141,0,0,0-.009.147.138.138,0,0,0,.124.076h2.2v1.741H12.881A1.586,1.586,0,0,1,11.46,19a1.542,1.542,0,0,1-.16-.865.161.161,0,0,0-.041-.123.143.143,0,0,0-.105-.047Zm5.214-8.423a.138.138,0,0,0-.116.064L7.715,15.916l-.067.105a.137.137,0,0,0,0,.139.138.138,0,0,0,.123.072h4.147a.137.137,0,0,0,.114-.06c.058-.088.108-.175.151-.257a7.021,7.021,0,0,0,.793-1.734c.325-1.4-.579-3.651-.982-4.556A.137.137,0,0,0,11.863,9.544Z" transform="translate(-0.001)" fill="#fff"/>
  <line id="Line_2" data-name="Line 2" x2="30" transform="translate(0.5 42.5)" fill="none" stroke="#fff" stroke-width="3" opacity="0"/>
</svg>
