<svg id="Component_5_1" data-name="Component 5 – 1" xmlns="http://www.w3.org/2000/svg" width="31" height="44" viewBox="0 0 31 44">
  <path id="creative-market" d="M30.988,16.079l-1.1-11.012a2.489,2.489,0,0,0-2.305-2.235L16.967,2.1a2.489,2.489,0,0,0-1.907.7L.753,16.726a2.488,2.488,0,0,0-.024,3.543L12.459,32a2.489,2.489,0,0,0,3.5.023L30.247,18.109A2.488,2.488,0,0,0,30.988,16.079Zm-8.2,3.587L21,22.7l-3.5-2.409a.335.335,0,0,0-.524.3l.294,4.242H13.738l.294-4.242a.335.335,0,0,0-.524-.3L10,22.7,8.212,19.666l3.907-1.956a.335.335,0,0,0,0-.6L8.212,15.155,10,12.12l3.5,2.409a.335.335,0,0,0,.524-.3l-.294-4.242h3.525l-.294,4.242a.335.335,0,0,0,.524.3L21,12.12l1.792,3.035-4.506,2.256Zm2.3-10.1a1.737,1.737,0,1,1,1.737-1.737A1.737,1.737,0,0,1,25.092,9.563Z" transform="translate(0 -2.093)" fill="#fff"/>
  <line id="Line_5" data-name="Line 5" x2="30" transform="translate(0.5 42.5)" fill="none" stroke="#fff" stroke-width="3" opacity="0"/>
</svg>
