<svg id="Component_6_1" data-name="Component 6 – 1" xmlns="http://www.w3.org/2000/svg" width="31" height="44" viewBox="0 0 31 44">
  <g id="adobe-stock" transform="translate(0 -9.25)">
    <path id="Path_35" data-name="Path 35" d="M25.52,9.25H5.48A5.527,5.527,0,0,0,0,14.73V33.65a5.582,5.582,0,0,0,5.5,5.48H25.52A5.546,5.546,0,0,0,31,33.65V14.73A5.584,5.584,0,0,0,25.52,9.25ZM15.48,29.29a4.166,4.166,0,0,1-1.78,1.4,7.026,7.026,0,0,1-2.72.48,10.968,10.968,0,0,1-2.08-.2,7.045,7.045,0,0,1-1.58-.5.338.338,0,0,1-.16-.34V27.69a.142.142,0,0,1,.06-.12.1.1,0,0,1,.12.02,7.017,7.017,0,0,0,1.82.8,6.876,6.876,0,0,0,1.88.26,2.991,2.991,0,0,0,1.68-.36,1.058,1.058,0,0,0,.5-.9,1.37,1.37,0,0,0-.74-1.16,5.905,5.905,0,0,0-1.12-.54,11.768,11.768,0,0,1-2.98-1.58,3.593,3.593,0,0,1-1.24-2.8,3.707,3.707,0,0,1,2.18-3.42,6.409,6.409,0,0,1,2.72-.52,13.543,13.543,0,0,1,1.839.12,4.883,4.883,0,0,1,1.361.38.271.271,0,0,1,.14.26v2.32a.107.107,0,0,1-.06.08.1.1,0,0,1-.12-.02,6.6,6.6,0,0,0-1.42-.52,11.7,11.7,0,0,0-1.7-.14c-.666,0-1.664.082-2.04.74a1.024,1.024,0,0,0,.061,1.06,5.552,5.552,0,0,0,2.56,1.4,8.342,8.342,0,0,1,2.1,1.18,3.508,3.508,0,0,1,1.06,1.36,4.11,4.11,0,0,1,.3,1.58A3.637,3.637,0,0,1,15.48,29.29Zm7.64-6.26c0,.08-.02.12-.1.14H21.08v4.38a1.634,1.634,0,0,0,.24,1,1.04,1.04,0,0,0,.86.3,1.832,1.832,0,0,0,.34-.02c.12,0,.22-.02.34-.02a.094.094,0,0,1,.12.02.121.121,0,0,1,.06.12v1.68c0,.14-.06.24-.16.26-.26.08-.54.14-.82.2a4.858,4.858,0,0,1-.98.08,3.024,3.024,0,0,1-2.1-.7,2.943,2.943,0,0,1-.76-2.24V23.17H17c-.12,0-.16-.06-.16-.18V20.95c0-.12.06-.16.18-.16h1.22c.02-.24.02-.5.06-.8.02-.3.04-.62.081-.92.02-.3.06-.56.08-.76.02-.04.02-.08.06-.12a.453.453,0,0,1,.1-.081l2.44-.3a.089.089,0,0,1,.1,0,.169.169,0,0,1,.04.12c-.02.32-.04.74-.06,1.28s-.02,1.06-.04,1.58H23c.08,0,.12.06.12.16v2.08Z" fill="#fff"/>
  </g>
  <line id="Line_6" data-name="Line 6" x2="30" transform="translate(0.5 42.5)" fill="none" stroke="#fff" stroke-width="3" opacity="0"/>
</svg>
