<svg id="Component_9_1" data-name="Component 9 – 1" xmlns="http://www.w3.org/2000/svg" width="31" height="44" viewBox="0 0 31 44">
  <g id="shutterstock" transform="translate(-2 -2)">
    <path id="Path_36" data-name="Path 36" d="M30.994,2H4.006A2.006,2.006,0,0,0,2,4.006V30.994A2.006,2.006,0,0,0,4.006,33H30.994A2.006,2.006,0,0,0,33,30.994V4.006A2.006,2.006,0,0,0,30.994,2ZM16.04,10.7H11.29a1.089,1.089,0,0,0-1.083,1.083v4.749H6.22V11.651a5.126,5.126,0,0,1,5.127-5.127H16.04V10.7ZM28.78,23.349a5.126,5.126,0,0,1-5.127,5.127H18.96V24.3H23.7a1.092,1.092,0,0,0,1.091-1.091V18.471H28.78v4.878Z" fill="#fff"/>
  </g>
  <line id="Line_7" data-name="Line 7" x2="30" transform="translate(0.5 42.5)" fill="none" stroke="#fff" stroke-width="3" opacity="0"/>
</svg>
