<svg id="Component_8_1" data-name="Component 8 – 1" xmlns="http://www.w3.org/2000/svg" width="30.908" height="44" viewBox="0 0 30.908 44">
  <g id="WA_Logo" transform="translate(0)">
    <g id="Group_22" data-name="Group 22" transform="translate(0)">
      <path id="Path_31" data-name="Path 31" d="M26.463,4.514A15.393,15.393,0,0,0,2.241,23.083L.057,31.057l8.158-2.14a15.373,15.373,0,0,0,7.354,1.874h.006A15.4,15.4,0,0,0,26.463,4.514ZM15.576,28.19h-.005a12.758,12.758,0,0,1-6.51-1.783l-.467-.277L3.753,27.4l1.293-4.721-.3-.484a12.79,12.79,0,1,1,10.835,6Zm7.016-9.58c-.384-.193-2.275-1.123-2.628-1.251s-.608-.193-.866.192-.993,1.251-1.218,1.509-.449.289-.833.1a10.5,10.5,0,0,1-3.093-1.909,11.576,11.576,0,0,1-2.139-2.664c-.224-.386-.023-.593.168-.784.173-.172.384-.449.577-.674a2.555,2.555,0,0,0,.387-.641.707.707,0,0,0-.032-.674c-.1-.192-.866-2.085-1.185-2.855-.312-.751-.629-.648-.866-.66s-.48-.013-.738-.013A1.409,1.409,0,0,0,9.1,8.763a4.318,4.318,0,0,0-1.346,3.208,7.483,7.483,0,0,0,1.57,3.978c.192.256,2.711,4.141,6.568,5.806a22.25,22.25,0,0,0,2.192.81,5.285,5.285,0,0,0,2.422.153,3.961,3.961,0,0,0,2.6-1.828,3.2,3.2,0,0,0,.224-1.828C23.233,18.9,22.977,18.8,22.592,18.611Z" transform="translate(-0.057)" fill="#fff" fill-rule="evenodd"/>
    </g>
  </g>
  <line id="Line_8" data-name="Line 8" x2="30" transform="translate(0.5 42.5)" fill="none" stroke="#fff" stroke-width="3" opacity="0"/>
</svg>
