<svg xmlns="http://www.w3.org/2000/svg" width="76.409" height="85.02" viewBox="0 0 76.409 85.02">
  <path id="Path_39" data-name="Path 39" d="M-4.632-73.575A15.191,15.191,0,0,1,3.106-71.5L4.959-82.3A31.519,31.519,0,0,0-8.121-85.02c-13.407,0-21.364,6.1-21.364,16.568,0,6.976,5.123,11.881,13.843,13.516v.218H-37.006V-44.8h8.284V0h14.388V-44.8H2.125v-9.919H-15.1v-8.72C-15.1-69.76-11.5-73.575-4.632-73.575ZM31.011-55.808c-10.355,0-16.568,8.72-16.568,23.653h-.218V-54.718H-.164V0H14.225V-24.743c0-11.554,5.014-18.421,13.407-18.421a16.188,16.188,0,0,1,7.63,1.962L39.4-54.064A19.5,19.5,0,0,0,31.011-55.808Z" transform="translate(37.005 85.02)" fill="#fff"/>
</svg>
