<svg xmlns="http://www.w3.org/2000/svg" width="31" height="27.246" viewBox="0 0 31 27.246">
  <g id="google-drive" transform="translate(-0.001 -30.998)">
    <path id="Union_2" data-name="Union 2" d="M-8399.5-8981.755l5.248-9.082h17.341a.911.911,0,0,1,.78.442.911.911,0,0,1,.02.9l-3.924,7.266a.909.909,0,0,1-.8.477Zm-2.685,0a.909.909,0,0,1-.785-.477l-3.924-7.266a.9.9,0,0,1,.014-.887l9.2-15.9,5.1,8.827-8.809,15.243a.91.91,0,0,1-.787.454Zm14.529-10.9-8.66-14.985a.9.9,0,0,1,0-.908.907.907,0,0,1,.786-.454h8.1a.908.908,0,0,1,.785.453l9.2,15.895Z" transform="translate(8407 9040)" fill="#fff"/>
  </g>
</svg>
